{"title":"Fish.Tank.LIMITED.2009.720p.BRRip.x264.aac.mp4-anoXmous","uid":6837662,"size":733119476,"categoryP":"video","categoryS":"hd___movies","magnet":"?xt=urn:btih:2d8de3d851a53a92281128ae6de234064ca908dc&amp;dn=Fish.Tank.LIMITED.2009.720p.BRRip.x264.aac.mp4-anoXmous&amp;tr=udp%3A%2F%2Ftracker.openbittorrent.com%3A80&amp;tr=udp%3A%2F%2Fopen.demonii.com%3A1337&amp;tr=udp%3A%2F%2Ftracker.coppersurfer.tk%3A6969&amp;tr=udp%3A%2F%2Fexodus.desync.com%3A6969","seeders":1,"leechers":0,"uploader":"anoXmous","files":-1,"time":1322062411,"description":"Fish.Tank.LIMITED.2009.720p.BRRip.x264.aac.mp4-anoXmous\n\nFormat                           : MPEG-4\nFormat profile                   : Base Media\nCodec ID                         : isom\nFile size                        : 699 MiB\nDuration                         : 2h 2mn\nOverall bit rate mode            : Variable\nOverall bit rate                 : 797 Kbps\n\n\nVideo\nID                               : 1\nFormat                           : AVC\nFormat/Info                      : Advanced Video Codec\nFormat profile                   : &lt;a class=&quot;__cf_email__&quot; href=&quot;/cdn-cgi/l/email-protection&quot; data-cfemail=&quot;5018393738101c647e61&quot;&gt;[email&amp;#160;protected]&lt;/a&gt;&lt;script cf-hash='f9e31' type=&quot;text/javascript&quot;&gt;\n/* &lt;![CDATA[ */!function(){try{var t=&quot;currentScript&quot;in document?document.currentScript:function(){for(var t=document.getElementsByTagName(&quot;script&quot;),e=t.length;e--;)if(t[e].getAttribute(&quot;cf-hash&quot;))return t[e]}();if(t&amp;&amp;t.previousSibling){var e,r,n,i,c=t.previousSibling,a=c.getAttribute(&quot;data-cfemail&quot;);if(a){for(e=&quot;&quot;,r=parseInt(a.substr(0,2),16),n=2;a.length-n;n+=2)i=parseInt(a.substr(n,2),16)^r,e+=String.fromCharCode(i);e=document.createTextNode(e),c.parentNode.replaceChild(e,c)}}}catch(u){}}();/* ]]&gt; */&lt;/script&gt;\nFormat settings, CABAC           : Yes\nFormat settings, ReFrames        : 4 frames\nCodec ID                         : avc1\nCodec ID/Info                    : Advanced Video Coding\nDuration                         : 2h 2mn\nBit rate                         : 742 Kbps\nMaximum bit rate                 : 7 572 Kbps\nWidth                            : 960 pixels\nHeight                           : 720 pixels\nDisplay aspect ratio             : 4:3\nFrame rate mode                  : Constant\nFrame rate                       : 23.976 fps\nColor space                      : YUV\nChroma subsampling               : 4:2:0\nBit depth                        : 8 bits\nScan type                        : Progressive\nBits/(Pixel*Frame)               : 0.045\nStream size                      : 650 MiB (93%)\nWriting library                  : x264 core 119 r2106 07efeb4\n\n\nAudio\nID                               : 2\nFormat                           : AAC\nFormat/Info                      : Advanced Audio Codec\nFormat profile                   : LC\nCodec ID                         : 40\nDuration                         : 2h 2mn\nBit rate mode                    : Variable\nBit rate                         : 52.6 Kbps\nMaximum bit rate                 : 74.0 Kbps\nChannel(s)                       : 2 channels\nChannel positions                : Front: L R\nSampling rate                    : 48.0 KHz / 24.0 KHz\nCompression mode                 : Lossy\nStream size                      : 46.1 MiB (7%)\n\n                              SUB:\nFish.Tank.LIMITED.2009.720p.BRRip.x264.aac.mp4-anoXmous.Swe.srt\n &lt;a href=&quot;\nhttp://www.imdb.com/title/tt1232776/&quot; rel=&quot;nofollow&quot; target=&quot;_NEW&quot;&gt;\nhttp://www.imdb.com/title/tt1232776/&lt;/a&gt;\n\nThis 1 should work very fine with PSP and XBOX :)\n\t\t\t\t\t\t\t  ","torrent":{"xt":"urn:btih:2d8de3d851a53a92281128ae6de234064ca908dc","amp;dn":"Fish.Tank.LIMITED.2009.720p.BRRip.x264.aac.mp4-anoXmous","amp;tr":["udp%3A%2F%2Ftracker.openbittorrent.com%3A80","udp%3A%2F%2Fopen.demonii.com%3A1337","udp%3A%2F%2Ftracker.coppersurfer.tk%3A6969","udp%3A%2F%2Fexodus.desync.com%3A6969"],"infoHash":"2d8de3d851a53a92281128ae6de234064ca908dc","infoHashBuffer":{"type":"Buffer","data":[45,141,227,216,81,165,58,146,40,17,40,174,109,226,52,6,76,169,8,220]},"announce":[],"urlList":[]}}